<!DOCTYPE svg  PUBLIC '-//W3C//DTD SVG 1.1//EN'  'http://www.w3.org/Graphics/SVG/1.1/DTD/svg11.dtd'>
<svg clip-rule="evenodd" fill-rule="evenodd" stroke-linejoin="round" stroke-miterlimit="2" version="1.1" viewBox="0 0 1024 1024" xml:space="preserve" xmlns="http://www.w3.org/2000/svg">
    <g transform="matrix(.92017 0 0 .92017 48.965 38.742)">
        <path d="m932.34 299.75v429.14c0 118.42-96.145 214.57-214.57 214.57h-429.14c-118.42 0-214.57-96.144-214.57-214.57v-429.14c0-118.42 96.144-214.57 214.57-214.57h429.14c118.42 0 214.57 96.145 214.57 214.57z" fill="#d65d0e"/>
    </g>
    <g transform="matrix(.83118 0 0 .87252 87.031 56.009)">
        <path d="m855.26 309.71v425.81c0 72.34-61.652 131.07-137.59 131.07h-412.77c-75.938 0-137.59-58.73-137.59-131.07v-425.81c0-72.34 61.652-131.07 137.59-131.07h412.77c75.938 0 137.59 58.731 137.59 131.07z" fill="#d65d0e"/>
        <clipPath id="_clip1">
            <path d="m855.26 309.71v425.81c0 72.34-61.652 131.07-137.59 131.07h-412.77c-75.938 0-137.59-58.73-137.59-131.07v-425.81c0-72.34 61.652-131.07 137.59-131.07h412.77c75.938 0 137.59 58.731 137.59 131.07z"/>
        </clipPath>
        <g clip-path="url(#_clip1)">
            <g transform="matrix(3.1615 4.4985e-21 4.0847e-21 2.6106 -1419.4 -411.16)">
                <path d="m636.54 169.16 175.1 18.886-39.332 304.05h-297.23l161.47-322.94z" fill="none"/>
                <clipPath id="_clip2">
                    <path d="m636.54 169.16 175.1 18.886-39.332 304.05h-297.23l161.47-322.94z"/>
                </clipPath>
                <g clip-path="url(#_clip2)">
                    <g transform="matrix(-.78459 1.1085e-16 -8.3112e-17 -.78292 1224.5 584.06)">
                        <path d="m610.83 169.16 161.47 322.94h-322.94l161.47-322.94z" fill="#fe8019"/>
                    </g>
                    <g transform="matrix(.78459 -2.2169e-16 1.6622e-16 .78292 4.5672 154.84)">
                        <path d="m610.83 169.16 161.47 322.94h-322.94l161.47-322.94z" fill="#fe8019"/>
                    </g>
                    <g transform="matrix(.30053 -.20017 .13802 .27579 323.38 392.92)">
                        <path d="m676.98 232.77-3.995 646.9h-111.98s0.353-392.08 0.465-517.28c0.021-23.622 9.664-45.586 25.551-58.2 34.009-27.004 89.959-71.428 89.959-71.428z" fill="#fe8019"/>
                    </g>
                    <g transform="matrix(.27678 -.18435 .20609 .41179 334.55 256.89)">
                        <rect x="547.21" y="311.75" width="119.76" height="569.23" fill="#fe8019"/>
                    </g>
                    <g transform="matrix(.27678 -.18435 .23547 .47051 354.54 185.73)">
                        <rect x="547.21" y="311.75" width="119.76" height="569.23" fill="#fe8019"/>
                    </g>
                </g>
            </g>
        </g>
    </g>
</svg>
