<!DOCTYPE svg  PUBLIC '-//W3C//DTD SVG 1.1//EN'  'http://www.w3.org/Graphics/SVG/1.1/DTD/svg11.dtd'>
<svg clip-rule="evenodd" fill-rule="evenodd" stroke-linejoin="round" stroke-miterlimit="2" version="1.1" viewBox="0 0 1024 1024" xml:space="preserve" xmlns="http://www.w3.org/2000/svg">
    <g transform="matrix(.92017 0 0 .92017 48.965 38.742)">
        <path d="m932.34 299.75v429.14c0 118.42-96.145 214.57-214.57 214.57h-429.14c-118.42 0-214.57-96.144-214.57-214.57v-429.14c0-118.42 96.144-214.57 214.57-214.57h429.14c118.42 0 214.57 96.145 214.57 214.57z" fill="#8f3f71"/>
    </g>
    <g transform="matrix(.83118 0 0 .87252 87.031 56.009)">
        <path d="m855.26 309.71v425.81c0 72.34-61.652 131.07-137.59 131.07h-412.77c-75.938 0-137.59-58.73-137.59-131.07v-425.81c0-72.34 61.652-131.07 137.59-131.07h412.77c75.938 0 137.59 58.731 137.59 131.07z" fill="#8f3f71"/>
        <clipPath id="_clip1">
            <path d="m855.26 309.71v425.81c0 72.34-61.652 131.07-137.59 131.07h-412.77c-75.938 0-137.59-58.73-137.59-131.07v-425.81c0-72.34 61.652-131.07 137.59-131.07h412.77c75.938 0 137.59 58.731 137.59 131.07z"/>
        </clipPath>
        <g clip-path="url(#_clip1)">
            <g transform="matrix(3.1615 4.4985e-21 4.0847e-21 2.6106 -1419.4 -411.16)">
                <path d="m636.54 169.16 175.1 18.886-39.332 304.05h-297.23l161.47-322.94z" fill="none"/>
                <clipPath id="_clip2">
                    <path d="m636.54 169.16 175.1 18.886-39.332 304.05h-297.23l161.47-322.94z"/>
                </clipPath>
                <g clip-path="url(#_clip2)">
                    <g transform="matrix(-.44479 6.284e-17 -4.7116e-17 -.44384 919.36 417.19)">
                        <path d="m599.17 192.49c2.408-4.816 6.855-7.782 11.666-7.782 4.812 0 9.259 2.966 11.667 7.782 37.079 74.158 149.8 299.61 149.8 299.61h-322.94s112.72-225.45 149.8-299.61z" fill="#b16286"/>
                    </g>
                    <g transform="matrix(.30652 -8.6609e-17 6.4939e-17 .30587 385.27 167.34)">
                        <path d="m610.83 169.16s102.98 205.95 144.46 288.91c3.508 7.016 3.511 15.663 7e-3 22.683-3.503 7.019-9.98 11.344-16.99 11.344h-288.94l161.47-322.94z" fill="#b16286"/>
                    </g>
                    <g transform="matrix(.4468 -1.3314e-16 9.4659e-17 .47019 313.86 282.8)">
                        <path d="m599.03 192.76c2.362-4.724 6.886-7.661 11.8-7.661 4.915 0 9.439 2.937 11.801 7.661 37.217 74.433 149.67 299.34 149.67 299.34h-322.94s112.45-224.9 149.67-299.34z" fill="#b16286"/>
                    </g>
                    <g transform="matrix(.45874 -1.3314e-16 9.7188e-17 .47019 433.85 145.92)">
                        <path d="m638.48 119.02 133.82 373.08h-300.37c-4.671 0-8.988-2.798-11.334-7.344-2.346-4.545-2.365-10.153-0.05-14.719 40.614-80.12 177.94-351.02 177.94-351.02z" fill="#b16286"/>
                    </g>
                    <g transform="matrix(-.38055 -5.3763e-17 4.1956e-17 -.39522 967.84 785.94)">
                        <path d="m746.56 614.1s138.22 276.44 181.86 363.72c2.718 5.436 2.644 12.063-0.195 17.423-2.84 5.361-8.02 8.651-13.617 8.651h-362.94l194.9-389.8z" fill="#b16286"/>
                    </g>
                    <g transform="matrix(.26509 .52968 -.38959 .25948 496.54 -38.481)">
                        <path d="m601.06 188.7c2.038-4.078 5.755-6.58 9.77-6.58 4.016 0 7.732 2.502 9.771 6.58 34.952 69.902 151.7 303.4 151.7 303.4h-322.94s116.75-233.5 151.7-303.4z" fill="#b16286"/>
                    </g>
                    <g transform="matrix(.34376 -.22896 .19847 .39658 331.72 275.01)">
                        <path d="m528.22 449.66c4.687-2.706 10.461-2.706 15.148 0 10.043 5.798 27.665 15.973 37.708 21.771 4.687 2.706 7.574 7.706 7.574 13.118v43.542c0 5.412-2.887 10.412-7.574 13.118-10.043 5.798-27.665 15.973-37.708 21.771-4.687 2.706-10.461 2.706-15.148 0-10.043-5.798-27.665-15.973-37.708-21.771-4.687-2.706-7.574-7.706-7.574-13.118v-43.542c0-5.412 2.887-10.412 7.574-13.118 10.043-5.798 27.665-15.973 37.708-21.771z" fill="#b16286"/>
                    </g>
                </g>
            </g>
        </g>
    </g>
</svg>
